 <svg
    width="2737"
    height="1348"
    viewBox="0 0 2737 1348"
    fill="none"
    xmlns="http://www.w3.org/2000/svg"
  >
    <rect x="1415" y="1" width="70" height="1314" fill="white" />
    <rect
      width="70"
      height="1552.5"
      transform="matrix(0.816371 -0.577528 0.577478 0.816406 1428 46.0898)"
      fill="white"
    />
    <path
      d="M2120.28 539.486C2221.79 252.083 2251.92 203.864 2411.89 287.071C2553.91 168.093 2577.28 320.878 2719.17 539.486C2693.87 192.989 2656.74 147.029 2509.84 147.029C2641.39 111.39 2672.17 120.935 2735.9 287.071C2699.13 -27.86 2576.44 -58.5274 2411.89 77.9448C2147.52 -91.9985 2092.99 41.5719 2060 272.63C2171.35 88.6777 2243.96 32.5063 2340.61 132.588C2144.45 109.892 2076.96 252.083 2120.28 539.486Z"
      fill="white"
      stroke="black"
    />
    <rect
      x="2325"
      y="1315"
      width="994"
      height="211"
      transform="rotate(-90 2325 1315)"
      fill="white"
    />
    <path
      fill-rule="evenodd"
      clip-rule="evenodd"
      d="M1196.56 1110H0V1315.03H1196.56V1110ZM109.642 1188.75H247.737V1238.19H109.642V1188.75ZM451.642 1213C451.642 1225.17 442.688 1235.04 431.642 1235.04C420.597 1235.04 411.642 1225.17 411.642 1213C411.642 1200.82 420.597 1190.96 431.642 1190.96C442.688 1190.96 451.642 1200.82 451.642 1213ZM271.642 1188.75H387.642V1238.35H271.642V1188.75Z"
      fill="white"
    />
    <rect y="1" width="70" height="1083" fill="white" />
  </svg>